
<svg version="1.1" id="Layer_1" xmlns="http://www.w3.org/2000/svg" xmlns:xlink="http://www.w3.org/1999/xlink" x="0px" y="0px"
	 viewBox="-268.9 335.6 38.6 73.9" style="enable-background:new -268.9 335.6 38.6 73.9;" xml:space="preserve">
	  <style>
	 #Layer_1{
	 	-webkit-transform: rotate(7deg); /* Chrome, Safari, Opera */
    transform: rotate(7deg);
	 }
	 
	 #first-steam,#second-steam,#third-steam {
	 	-webkit-animation: steam 2.5s ease infinite;
	 }
	 
	@-webkit-keyframes steam {
	
		
	from {
			opacity:0.1;
			-webkit-transform:translateY(0px);
		}
		
		to {
		    fill:#fff;
			opacity:0.2;
			-webkit-transform:translateY(-30px);
		}
	}
	 </style>
<g id="cup">
	<path d="M-235.5,409.5h-27.1l-2.8-40h32.7L-235.5,409.5z M-230.3,366.8c0,0.5-0.5,1-1.1,1h-36.4c-0.6,0-1.1-0.4-1.1-0.9
		s0.5-1,1.1-1.2l1.8-0.6c0.6-0.2,1.1-0.8,1.1-1.4v-0.8c0-0.6,0.5-1.1,1.1-1.1h28.6c0.6,0,1.1,0.5,1.1,1.1v0.8c0,0.6,0.5,1.2,1.1,1.4
		l1.8,0.5C-230.8,365.7-230.3,366.2-230.3,366.8z"/>
</g>
<g id="third-steam">
	<path d="M-242.5,336c-2.1,2.5-3.5,6.2-2.1,9.3c1.2,2.7,4.5,3.9,3.9,7.3c-0.3,1.6-1.3,2.6-2,4c-0.6,1.4,1.4,2.6,2,1.2
		c0.5-1.2,1.4-2.2,1.9-3.4c0.8-2,0.6-4.2-0.4-6c-0.6-1.1-1.7-1.9-2.5-2.8c-1.1-1.1-1.3-2.7-1-4.1c0.2-1.4,1.1-3,1.9-3.9
		C-239.9,336.5-241.5,334.8-242.5,336L-242.5,336z"/>
</g>
<g id="second-steam">
	<path d="M-251.4,336c-2.1,2.5-3.5,6.2-2.1,9.3c1.2,2.7,4.5,3.9,3.9,7.3c-0.3,1.6-1.3,2.6-2,4c-0.6,1.4,1.4,2.6,2,1.2
		c0.5-1.2,1.4-2.2,1.9-3.4c0.8-2,0.6-4.2-0.4-6c-0.6-1.1-1.7-1.9-2.5-2.8c-1.1-1.1-1.3-2.7-1-4.1c0.2-1.4,1.1-3,1.9-3.9
		C-248.8,336.5-250.5,334.8-251.4,336L-251.4,336z"/>
</g>
<g id="first-steam">
	<path d="M-260.4,336c-2.1,2.5-3.5,6.2-2.1,9.3c1.2,2.7,4.5,3.9,3.9,7.3c-0.3,1.6-1.3,2.6-2,4c-0.6,1.4,1.4,2.6,2,1.2
		c0.5-1.2,1.4-2.2,1.9-3.4c0.8-2,0.6-4.2-0.4-6c-0.6-1.1-1.7-1.9-2.5-2.8c-1.1-1.1-1.3-2.7-1-4.1c0.2-1.4,1.1-3,1.9-3.9
		C-257.8,336.5-259.5,334.8-260.4,336L-260.4,336z"/>
</g>
</svg>
