<?xml version="1.0" encoding="utf-8"?>
<!-- Generator: Adobe Illustrator 18.1.1, SVG Export Plug-In . SVG Version: 6.00 Build 0)  -->
<svg version="1.1" id="Layer_1" xmlns="http://www.w3.org/2000/svg" xmlns:xlink="http://www.w3.org/1999/xlink" x="0px" y="0px"
	 viewBox="-282.4 385.5 19.9 24.4" style="enable-background:new -282.4 385.5 19.9 24.4;" xml:space="preserve">
<style type="text/css">
	.st0{fill:#FFFFFF;}
</style>
<g>
	<path class="st0" d="M-281.9,385.8c-0.1,0-0.2,0.1-0.2,0.2v11.7h19.3v-5.9h-5.7c-0.1,0-0.2-0.1-0.2-0.2v-5.7H-281.9z"/>
	<polygon class="st0" points="-268,385.8 -268,390.9 -262.8,390.9 	"/>
	<g>
		<polygon class="st0" points="-281.3,400 -281.3,404.3 -280.2,404.3 -280.2,402.4 -278.6,402.4 -278.6,404.3 -277.4,404.3 
			-277.4,400 -278.6,400 -278.6,401.5 -280.2,401.5 -280.2,400 		"/>
		<polygon class="st0" points="-276.8,400 -276.8,400.8 -275.4,400.8 -275.4,404.3 -274.3,404.3 -274.3,400.8 -273,400.8 -273,400 
			-276.8,400 		"/>
		<polygon class="st0" points="-272.3,400 -272.3,404.3 -271.3,404.3 -271.3,401.4 -270.5,403.3 -269.7,403.3 -268.9,401.4 
			-268.9,404.3 -267.8,404.3 -267.8,400 -269.1,400 -270.1,402.1 -271,400 		"/>
		<polygon class="st0" points="-266.7,400 -266.7,404.3 -263.6,404.3 -263.6,403.4 -265.6,403.4 -265.6,400 		"/>
	</g>
	<path class="st0" d="M-282.1,406.5v2.8c0,0.1,0.1,0.2,0.2,0.2h18.9c0.1,0,0.2-0.1,0.2-0.2v-2.8H-282.1z"/>
</g>
</svg>
