<?xml version="1.0" encoding="utf-8"?>
<!-- Generator: Adobe Illustrator 18.1.1, SVG Export Plug-In . SVG Version: 6.00 Build 0)  -->
<svg version="1.1" id="Layer_1" xmlns="http://www.w3.org/2000/svg" xmlns:xlink="http://www.w3.org/1999/xlink" x="0px" y="0px"
	 viewBox="-282.6 384.4 19.3 23.7" style="enable-background:new -282.6 384.4 19.3 23.7;" xml:space="preserve">
<style type="text/css">
	.st0{fill:#FFFFFF;}
</style>
<path class="st0" d="M-282.4,384.4c-0.1,0-0.2,0.1-0.2,0.2v11.7h19.3v-5.9h-5.7c-0.1,0-0.2-0.1-0.2-0.2v-5.7H-282.4z M-268.6,384.4
	v5.2h5.2L-268.6,384.4z M-271.1,398.7c-0.6,0-1,0.1-1.4,0.4c-0.4,0.3-0.5,0.6-0.5,1c0,0.3,0.1,0.6,0.2,0.8c0.2,0.2,0.4,0.3,0.8,0.5
	c0.2,0.1,0.3,0.1,0.5,0.1c0.2,0,0.3,0.1,0.5,0.1c0.2,0,0.3,0.1,0.3,0.2c0.1,0.1,0.1,0.1,0.1,0.2c0,0.1,0,0.2-0.1,0.2
	c-0.1,0.1-0.1,0.1-0.2,0.1c-0.1,0-0.2,0-0.3,0s-0.2,0-0.3,0c-0.3,0-0.5,0-0.8-0.1c-0.3-0.1-0.5-0.3-0.8-0.4h-0.1v1
	c0.2,0.1,0.5,0.2,0.7,0.2c0.3,0.1,0.6,0.1,0.9,0.1c0.6,0,1.1-0.1,1.5-0.4c0.4-0.3,0.6-0.6,0.6-1c0-0.3-0.1-0.6-0.3-0.7
	c-0.2-0.2-0.4-0.3-0.7-0.4c-0.2-0.1-0.3-0.1-0.5-0.1c-0.1,0-0.3-0.1-0.5-0.1c-0.2-0.1-0.4-0.1-0.5-0.2c-0.1-0.1-0.1-0.1-0.1-0.3
	c0-0.1,0-0.2,0.1-0.2c0.1-0.1,0.1-0.1,0.2-0.1c0.1,0,0.2-0.1,0.3-0.1c0.1,0,0.2,0,0.3,0c0.3,0,0.5,0,0.8,0.1
	c0.3,0.1,0.5,0.2,0.6,0.3h0.1v-1c-0.2-0.1-0.4-0.2-0.7-0.2C-270.6,398.7-270.9,398.7-271.1,398.7L-271.1,398.7z M-276,398.8v0.8h1
	v1.7c0,0.2,0,0.3,0,0.4c0,0.1,0,0.2-0.1,0.3c0,0.1-0.1,0.2-0.2,0.2c-0.1,0.1-0.3,0.1-0.5,0.1c-0.2,0-0.3,0-0.4,0
	c-0.1,0-0.2-0.1-0.3-0.1h-0.1v0.9c0.1,0,0.3,0.1,0.5,0.1c0.2,0,0.4,0,0.6,0c0.3,0,0.5,0,0.7-0.1c0.2-0.1,0.4-0.2,0.5-0.3
	c0.1-0.1,0.2-0.3,0.3-0.4c0.1-0.2,0.1-0.3,0.1-0.5v-3C-273.9,398.8-276,398.8-276,398.8z M-282.6,405.2v2.8c0,0.1,0.1,0.2,0.2,0.2
	h18.9c0.1,0,0.2-0.1,0.2-0.2v-2.8C-263.4,405.2-282.6,405.2-282.6,405.2z"/>
</svg>
