<svg version="1.1" id="Layer_1" xmlns="http://www.w3.org/2000/svg" xmlns:xlink="http://www.w3.org/1999/xlink" x="0px" y="0px"

	 viewBox="0 0 612 792" style="enable-background:new 0 0 612 792;" xml:space="preserve">
<style type="text/css">

	.st0{fill:#CE2028;}

	.st1{fill:#FBD118;}

	.st2{fill:#009461;}

	.st3{fill:none;stroke:#000000;stroke-miterlimit:10;}
	
	@media only screen and (max-width:200px) {
		.st1 {
		display:none;
		}
	}

</style>

<g id="_x3C_country_x3E_">

	<rect x="265.9" y="423.2" class="st0" width="26.8" height="2.5"/>

	<rect x="292.7" y="423.2" class="st1" width="26.8" height="2.5"/>

	<rect x="319.5" y="423.2" class="st2" width="26.8" height="2.5"/>

</g>

<g id="us">

	<g>

		<path d="M298,413.9c-1.9,0.6-4.3,1-7.1,1c-2.5,0-4.7-0.4-6.6-1.2c-2-0.8-3.6-2-5-3.5c-1.3-1.5-2.4-3.4-3.1-5.5

			c-0.7-2.1-1.1-4.5-1.2-7.1c0-1.1,0-2.2,0-3.2c0-1,0-2.1,0-3.2v-14c0-0.9,0-1.8,0-2.8c0-0.9,0.1-2,0.1-3.3c0.1-1.2,0.3-2.3,0.8-3.1

			c0.5-0.8,1.1-1.5,1.8-1.9c0.2-0.1,0.4-0.3,0.6-0.4h-12.7c0.8,0.4,1.5,1,2.1,1.7c0.4,0.4,0.6,1,0.8,1.7c0.2,0.6,0.3,1.3,0.3,2.1

			c0.1,0.8,0.1,1.6,0.1,2.5v11.9c0,2.6,0,4.9,0,7.1c0,2.1,0,3.8,0,5.1c0,0.5,0,1.4,0.1,2.5c0.1,1.1,0.3,2.3,0.7,3.6

			c0.4,1.3,1,2.7,1.8,4c0.8,1.3,1.9,2.6,3.3,3.7c1.4,1.1,3.2,2,5.5,2.7c2.2,0.7,5,1,8.3,1c3.3,0,6.2-0.4,8.4-1.1

			c0.5-0.2,1-0.3,1.4-0.5C298.2,413.8,298.1,413.9,298,413.9z"/>

		<path d="M312.4,366c0.2-0.1,0.5-0.3,0.7-0.4h-9.4c0.5,0.2,1,0.5,1.4,0.8c1.3,0.9,2.2,2.2,2.8,3.6c0.2,0.5,0.4,1.2,0.5,2.1

			c0.1,0.8,0.2,1.7,0.2,2.6c0,0.9,0.1,1.8,0.1,2.7c0-0.1,0-0.2,0-0.3c0-1.1,0.1-2.2,0.2-3.2c0.1-1,0.2-1.9,0.3-2.7

			c0.1-0.8,0.3-1.4,0.5-1.8C310.3,367.9,311.3,366.8,312.4,366z"/>

	</g>

	<g>

		<path d="M341.8,368.6c-0.3,0-0.5-0.1-1.3-0.7c-0.4-0.3-1.1-0.7-2-1.1c-0.9-0.4-2.1-0.8-3.5-1.1c0,0,0,0,0,0c0,0,0.1,0,0.1,0.1

			c1.6,0.8,3,1.8,4.3,3.1c1.2,1.2,2.3,2.7,3.2,4.3c0.5,0.8,0.9,1.6,1.3,2.5v-8.7c-0.1,0.2-0.3,0.4-0.4,0.5

			C342.8,368.2,342.4,368.6,341.8,368.6z"/>

		<path d="M345.1,407.7c0.8-1.7,1.3-3.6,1.3-5.7c0-3.1-0.8-5.7-2.4-7.8c-1.6-2.1-4-3.7-7-4.8c-0.9-0.3-1.7-0.6-2.6-0.9

			c-0.8-0.3-1.6-0.5-2.4-0.8c-0.8-0.3-1.6-0.5-2.4-0.8c-0.8-0.3-1.7-0.6-2.7-1c-2.5-0.9-4.6-2.2-6.1-3.8c-1.7-1.7-2.5-3.9-2.5-6.6

			c0-1.7,0.3-3.3,0.9-4.6c0.6-1.4,1.4-2.5,2.5-3.5c0.5-0.4,1-0.8,1.6-1.1c-1.8,0.6-3.4,1.4-4.7,2.4c-1.5,1.1-2.6,2.6-3.5,4.3

			c-0.9,1.7-1.3,3.8-1.3,6.2c0,1.4,0.2,2.7,0.7,3.9c0.5,1.3,1.1,2.4,1.9,3.4c0.8,1,1.7,1.9,2.8,2.7c1.1,0.8,2.2,1.4,3.3,1.8

			c1.1,0.4,2,0.8,2.8,1c0.8,0.3,1.5,0.5,2.3,0.8c0.7,0.3,1.5,0.5,2.3,0.8c0.9,0.3,1.9,0.6,3,1.1c1.2,0.4,2.3,0.9,3.3,1.5

			c1.1,0.6,2,1.2,2.8,2c0.8,0.8,1.5,1.8,1.9,2.9c0.5,1.1,0.7,2.4,0.7,3.8c0,3.5-1.2,6.3-3.5,8.4c-0.6,0.6-1.3,1.1-2.1,1.5

			c0.1,0,0.2,0,0.3-0.1c2.1-0.6,4-1.5,5.5-2.7C343,410.8,344.2,409.4,345.1,407.7z"/>

		<path d="M313.8,413.7c0.6-0.8,1.1-1.2,1.6-1.2c0.3,0,0.7,0.2,1.5,0.6c0.5,0.3,1.3,0.6,2.3,1c1,0.4,2.3,0.7,3.9,1

			c0.1,0,0.1,0,0.2,0c-0.7-0.3-1.3-0.5-1.9-0.8c-0.9-0.5-1.8-1.1-2.7-2c-0.9-0.8-1.8-1.8-2.6-2.9c-0.8-1.1-1.5-2.3-2.2-3.5

			c-0.2-0.4-0.4-0.8-0.6-1.2l0.1,9.3C313.5,414,313.6,413.8,313.8,413.7z"/>

	</g>

</g>

<path class="st3" d="M368.9,458.5H243.1V332.7h125.8V458.5z"/>

</svg>

