<?xml version="1.0" encoding="utf-8"?>
<!-- Generator: Adobe Illustrator 18.1.1, SVG Export Plug-In . SVG Version: 6.00 Build 0)  -->
<svg version="1.1" id="Layer_1" xmlns="http://www.w3.org/2000/svg" xmlns:xlink="http://www.w3.org/1999/xlink" x="0px" y="0px"
	 viewBox="0 0 278.1 207.5" enable-background="new 0 0 278.1 207.5" xml:space="preserve">
<g>
	<rect x="0" y="199" fill="#CE2028" width="92.7" height="8.5"/>
	<rect x="92.7" y="199" fill="#FBD118" width="92.7" height="8.5"/>
	<rect x="185.4" y="199" fill="#009461" width="92.7" height="8.5"/>
</g>
<g>
	<path d="M111,166.8c-6.7,2.2-14.9,3.3-24.5,3.3c-8.5,0-16.2-1.4-22.9-4.3c-6.7-2.8-12.5-7-17.2-12.3c-4.6-5.2-8.3-11.7-10.8-19.1
		c-2.5-7.3-3.9-15.6-4.1-24.5c0-3.9,0-7.6-0.1-11.1c-0.1-3.5-0.1-7.2-0.1-10.9V39.6c0-3.1,0-6.3,0.1-9.6c0.1-3.3,0.2-7,0.4-11.3
		c0.2-4.2,1.1-7.9,2.9-10.7c1.7-2.8,3.8-5.1,6.3-6.7c0.7-0.5,1.4-0.9,2.2-1.3h-44C2,1.4,4.4,3.4,6.5,5.9c1.3,1.5,2.2,3.5,2.8,6
		c0.5,2.2,0.9,4.6,1.2,7.3c0.3,2.6,0.4,5.5,0.4,8.5v41.2c0,9,0,17.1-0.1,24.4c-0.1,7.3-0.1,13.2-0.1,17.8c0,1.9,0.1,4.8,0.4,8.7
		c0.2,3.7,1,8,2.3,12.5c1.3,4.5,3.3,9.2,6.1,13.9c2.6,4.6,6.4,8.9,11.3,12.8c4.9,3.9,11.2,7,18.8,9.3c7.7,2.3,17.4,3.5,28.7,3.5
		c11.5,0,21.3-1.2,29.1-3.6c1.7-0.5,3.3-1.1,4.8-1.7C111.8,166.6,111.4,166.7,111,166.8z"/>
	<path d="M160.8,1.4c0.8-0.5,1.6-1,2.4-1.4h-32.5c1.9,0.8,3.5,1.8,5,2.8c4.5,3.2,7.7,7.4,9.5,12.6c0.7,1.8,1.3,4.1,1.6,7.1
		c0.3,2.8,0.6,5.7,0.7,8.9c0.2,3,0.3,6.2,0.4,9.5c0-0.3,0-0.7,0-1c0.2-3.8,0.4-7.5,0.7-11c0.3-3.5,0.7-6.5,1.1-9.2
		c0.4-2.9,1-5,1.6-6.4C153.6,8,156.8,4,160.8,1.4z"/>
</g>
<g>
	<path d="M262.4,10.5c-1.1,0-1.8-0.4-4.6-2.4c-1.5-1.1-3.9-2.3-7-3.7c-3.1-1.4-7.3-2.7-12.3-3.8c0,0,0,0,0,0
		c0.1,0.1,0.3,0.1,0.4,0.2c5.5,2.7,10.4,6.4,14.7,10.7c4.2,4.3,8,9.3,11.2,14.7c1.6,2.8,3.1,5.6,4.5,8.5V4.6
		c-0.5,0.6-0.9,1.2-1.4,1.9C265.7,9.1,264.3,10.5,262.4,10.5z"/>
	<path d="M273.7,145.5c2.9-5.7,4.4-12.3,4.4-19.6c0-10.8-2.8-19.8-8.5-27c-5.7-7.2-13.9-12.8-24.3-16.7c-3.1-1.1-6-2.2-8.8-3.1
		c-2.8-1-5.6-1.9-8.3-2.8c-2.8-0.9-5.6-1.8-8.4-2.8c-2.9-1-6-2.2-9.3-3.5c-8.6-3.2-15.7-7.6-21.2-13.1c-5.8-5.8-8.7-13.5-8.7-22.9
		c0-5.9,1-11.3,3.1-16c2-4.7,4.9-8.7,8.6-11.9c1.7-1.5,3.5-2.8,5.5-3.9c-6.1,1.9-11.6,4.8-16.3,8.5c-5,3.9-9.1,8.9-12.1,14.8
		c-3,5.9-4.5,13-4.5,21.3c0,4.8,0.8,9.4,2.5,13.6c1.7,4.3,3.9,8.3,6.6,11.9c2.7,3.6,6,6.7,9.6,9.4c3.7,2.7,7.5,4.8,11.5,6.3
		c3.7,1.4,6.9,2.6,9.5,3.5c2.7,0.9,5.3,1.8,7.9,2.7c2.5,0.9,5.2,1.8,8.1,2.8c3,1,6.4,2.2,10.3,3.7c4,1.5,7.8,3.2,11.3,5
		c3.7,1.9,6.9,4.3,9.6,7c2.8,2.8,5,6.1,6.6,9.9c1.6,3.8,2.4,8.2,2.4,13.2c0,12.1-4.1,21.9-12.3,29c-2.2,2-4.6,3.6-7.2,5.1
		c0.3-0.1,0.7-0.2,1-0.3c7.4-2,13.8-5.1,19-9.2C266.6,156.2,270.7,151.2,273.7,145.5z"/>
	<path d="M165.4,166.1c2.2-2.7,3.7-4,5.5-4c1.2,0,2.5,0.5,5.1,2.2c1.7,1,4.3,2.2,7.9,3.5c3.5,1.3,8.1,2.4,13.6,3.4
		c0.2,0,0.4,0.1,0.6,0.1c-2.5-0.9-4.6-1.9-6.4-2.8c-3-1.6-6.1-3.9-9.3-6.8c-3.1-2.9-6.1-6.3-8.9-10.1c-2.8-3.8-5.3-7.8-7.7-12
		c-0.7-1.3-1.4-2.7-2.1-4.1l0.5,32.2C164.6,167.1,165,166.6,165.4,166.1z"/>
</g>
</svg>
