<?xml version="1.0" encoding="utf-8"?>
<!-- Generator: Adobe Illustrator 18.1.1, SVG Export Plug-In . SVG Version: 6.00 Build 0)  -->
<svg version="1.1" id="Layer_1" xmlns="http://www.w3.org/2000/svg" xmlns:xlink="http://www.w3.org/1999/xlink" x="0px" y="0px"
	 viewBox="0 0 69.5 69.5" style="enable-background:new 0 0 69.5 69.5;" xml:space="preserve">
<style type="text/css">
	.st0{fill:#2CADE3;}
</style>
<g>
	<g>
		<path class="st0" d="M30,5.5c-0.1-0.1-0.2-0.1-0.3-0.2c-0.1,0-0.2,0-0.3,0.1L30,5.5z"/>
		<path class="st0" d="M6,29.1c0,0.1,0,0.2-0.1,0.3c0.1,0.1,0.1,0.2,0.2,0.3L6,29.1z"/>
		<path class="st0" d="M64.6,40.3c0-0.1,0-0.2,0.1-0.3c-0.1-0.1-0.1-0.2-0.2-0.3L64.6,40.3z"/>
		<path class="st0" d="M40.3,63.8c0.1,0.1,0.2,0.1,0.3,0.2c0.1,0,0.2,0,0.3-0.1L40.3,63.8z"/>
		<path class="st0" d="M64.7,40c0,0.1,0,0.2-0.1,0.3l-0.1-0.6C64.6,39.8,64.6,39.9,64.7,40c0.3-1.8,0.5-3.6,0.5-5.4
			c0-4-0.8-7.9-2.3-11.6c-1.5-3.6-3.7-6.7-6.4-9.5c-2.7-2.7-5.9-4.9-9.5-6.4c-3.7-1.6-7.6-2.3-11.6-2.3c-1.9,0-3.8,0.2-5.6,0.5
			c0,0,0,0,0,0c0.1,0.1,0.2,0.1,0.3,0.2l-0.6-0.1c0.1,0,0.2,0,0.3-0.1c-2.5-1.3-5.4-2.1-8.3-2.1c-4.7,0-9.1,1.8-12.5,5.2
			c-3.3,3.3-5.2,7.8-5.2,12.5c0,3,0.8,6,2.2,8.6c0-0.1,0-0.2,0.1-0.3l0.1,0.6c-0.1-0.1-0.1-0.2-0.2-0.3c-0.3,1.7-0.4,3.4-0.4,5.1
			c0,4,0.8,7.9,2.3,11.6c1.5,3.6,3.7,6.7,6.4,9.5c2.7,2.7,5.9,4.9,9.5,6.4c3.7,1.6,7.6,2.3,11.6,2.3c1.8,0,3.5-0.2,5.2-0.5
			c-0.1-0.1-0.2-0.1-0.3-0.2l0.6,0.1c-0.1,0-0.2,0-0.3,0.1c2.6,1.5,5.6,2.3,8.7,2.3c4.7,0,9.1-1.8,12.5-5.2
			c3.3-3.3,5.2-7.8,5.2-12.5C66.9,45.6,66.1,42.6,64.7,40z M35.5,52.9c-10.6,0-15.3-5.2-15.3-9.1c0-2,1.5-3.4,3.5-3.4
			c4.5,0,3.4,6.5,11.8,6.5c4.3,0,6.7-2.4,6.7-4.8c0-1.4-0.7-3.1-3.6-3.8L29.2,36c-7.6-1.9-9-6-9-9.9c0-8,7.5-11,14.6-11
			c6.5,0,14.2,3.6,14.2,8.4c0,2.1-1.8,3.3-3.8,3.3c-3.9,0-3.2-5.4-10.9-5.4c-3.9,0-6,1.8-6,4.3c0,2.5,3.1,3.3,5.7,3.9l7,1.5
			c7.6,1.7,9.6,6.2,9.6,10.4C50.6,48,45.6,52.9,35.5,52.9z"/>
	</g>
</g>
</svg>
