
<svg version="1.1"
	 id="svg22133" sodipodi:docname="boussole.svg" inkscape:version="0.48.3.1 r9886" xmlns:cc="http://creativecommons.org/ns#" xmlns:inkscape="http://www.inkscape.org/namespaces/inkscape" xmlns:dc="http://purl.org/dc/elements/1.1/" xmlns:rdf="http://www.w3.org/1999/02/22-rdf-syntax-ns#" xmlns:svg="http://www.w3.org/2000/svg" xmlns:sodipodi="http://sodipodi.sourceforge.net/DTD/sodipodi-0.dtd"
	 xmlns="http://www.w3.org/2000/svg" xmlns:xlink="http://www.w3.org/1999/xlink" x="0px" y="0px" viewBox="-255 357 41.5 53.5"
	 style="enable-background:new -255 357 41.5 53.5;" xml:space="preserve">
	 
<path d="M-223.9,357l-2,1.9c3.4,2.7,5.6,6.8,5.6,11.4c0,0.1,0,0.1,0,0.2c0,0.1,0,0.1,0,0.2c-0.1,4.6-2.2,8.6-5.6,11.3l1.9,1.9
	c3.7-3.1,6.1-7.6,6.4-12.6c0-0.1,0-0.2,0-0.4c0-0.1,0.2-0.2,0.2-0.3c0-0.2-0.2-0.3-0.2-0.5c0-0.1,0-0.2,0-0.4
	C-217.8,364.6-220.2,360.1-223.9,357z M-250.2,359.5c-0.5,0.1-0.9,0.4-1.1,0.8c-4.2,9.7-2.7,22.4,3.3,31.9
	c6.1,9.5,17,16.6,27.9,17.4c0.8,0.1,1.5-0.5,1.5-1.2c0.1-0.8-0.5-1.4-1.3-1.5h0c-9.7-0.7-20.1-7.4-25.7-16.1
	c-5.4-8.4-6.7-19.8-3.4-28.4l9,1.4l-2,12.8l-2.2-0.3c-0.8-0.1-1.5,0.4-1.6,1.1c0,0.1,0,0.3,0,0.4c0.7,4.5,2.4,8.9,5.4,12.7
	c2,2.6,4.3,4.8,6.9,6.5c0.7,0.4,1.5,0.2,2-0.4c0.1-0.1,0.1-0.2,0.2-0.3l0.7-2l12.7,4.2l-1,2.9c-0.3,0.7,0.1,1.5,0.9,1.7
	c0.7,0.2,1.6-0.1,1.8-0.9l0,0l1.4-4.2c0.2-0.7-0.1-1.5-0.9-1.7l-15.4-5c-0.7-0.2-1.5,0.1-1.8,0.8l-0.5,1.3c-1.7-1.3-3.4-2.7-4.7-4.5
	c-2.3-3-3.6-6.3-4.4-9.7l1.5,0.2c0.8,0.1,1.5-0.4,1.6-1.1l2.4-15.6c0.1-0.7-0.4-1.4-1.2-1.5l-1.3-0.2l-10.4-1.6
	C-249.9,359.5-250.1,359.5-250.2,359.5z M-228.4,361.3l-2,1.9c2.4,1.6,3.9,4.2,3.9,7.2c0,2.9-1.5,5.5-3.9,7.1l2,1.9
	c2.8-2.1,4.7-5.4,4.7-9.1C-223.7,366.8-225.5,363.5-228.4,361.3z M-232.8,365.6l-2.1,2c1.3,0.4,2.3,1.5,2.3,2.8
	c0,1.3-0.9,2.4-2.2,2.8l2.1,2c1.7-1,2.9-2.8,2.9-4.9C-229.8,368.4-231.1,366.6-232.8,365.6z"/>
</svg>
