<?xml version="1.0" encoding="utf-8"?>
<!-- Generator: Adobe Illustrator 19.0.0, SVG Export Plug-In . SVG Version: 6.00 Build 0)  -->
<svg version="1.1" id="Layer_1" xmlns="http://www.w3.org/2000/svg" xmlns:xlink="http://www.w3.org/1999/xlink" x="0px" y="0px"
	 viewBox="-247 389 116 15" style="enable-background:new -247 389 116 15;" xml:space="preserve">
<style type="text/css">
	.st0{enable-background:new    ;}
	.st1{fill:none;}
</style>
<g class="st0">
	<path d="M-191.8,398.9c0,3.9-2.5,4.9-5.9,4.9c-1.6,0-3.1-0.2-4.5-0.5v-13.9h0.5V403c1.2,0.2,2.6,0.4,4,0.4c3,0,5.4-0.9,5.4-4.4
		v-9.6h0.5V398.9z"/>
	<path d="M-213.5,403.7l-4.9-13.9l-2.5,13.9h-0.5l2.6-14.3h0.7l4.8,13.8l4.8-13.8h0.7l2.6,14.3h-0.5l-2.5-13.8l-4.9,13.9H-213.5z"/>
	<path d="M-233.2,399.2l-1.8,4.5h-0.5l6-14.3h0.6l5.9,14.3h-0.5l-1.8-4.5H-233.2z M-233,398.8h7.5l-3.7-9L-233,398.8z"/>
	<path d="M-238.5,397.6h-2.4l-5.4,6h-0.6l5.5-6.1c-2.1-0.2-4.1-1.5-4.1-4.2c0-2.7,1.7-4.2,5.3-4.2c0.7,0,1.7,0.1,2.2,0.2v14.2h-0.5
		V397.6z M-238.5,389.8c-0.5-0.1-1.2-0.1-1.8-0.1c-3.2,0-4.8,1.4-4.8,3.8c0,2.6,2,3.8,4.3,3.8h2.2V389.8z"/>
</g>
<rect x="-191.8" y="387.6" class="st1" width="62.3" height="16.4"/>
<g class="st0">
	<path d="M-190,402.2c1,1,2.3,1.5,3.7,1.5c2.1,0,3.8-1.1,3.8-3.3c0-2-1.6-2.8-3.6-3.7c-2.2-0.9-3.7-1.7-3.7-3.9
		c0-2.2,1.8-3.3,3.8-3.3c1.3,0,2.6,0.5,3.3,1.2v0.6c-0.9-0.9-2.1-1.4-3.3-1.4c-1.8,0-3.3,1-3.3,2.9c0,1.8,1.2,2.6,3.3,3.5
		c2.2,0.9,4,1.8,4,4.1c0,2.4-1.9,3.7-4.3,3.7c-1.5,0-2.9-0.6-3.7-1.3V402.2z"/>
	<path d="M-171.3,403.5v0.4h-7.7v-14.3h7.6v0.4h-7.1v6.3h6.8v0.4h-6.8v6.7H-171.3z"/>
	<path d="M-169.1,402.2c1,1,2.3,1.5,3.7,1.5c2.1,0,3.8-1.1,3.8-3.3c0-2-1.6-2.8-3.6-3.7c-2.2-0.9-3.7-1.7-3.7-3.9
		c0-2.2,1.8-3.3,3.8-3.3c1.3,0,2.6,0.5,3.3,1.2v0.6c-0.9-0.9-2.1-1.4-3.3-1.4c-1.8,0-3.3,1-3.3,2.9c0,1.8,1.2,2.6,3.3,3.5
		c2.2,0.9,4,1.8,4,4.1c0,2.4-1.9,3.7-4.3,3.7c-1.5,0-2.9-0.6-3.7-1.3V402.2z"/>
	<path d="M-157.4,399.4l-1.8,4.5h-0.5l5.9-14.3h0.6l6,14.3h-0.5l-1.8-4.5H-157.4z M-153.5,390l-3.7,9h7.5L-153.5,390z"/>
	<path d="M-137.2,389.6h0.5l-5.3,8.5v5.8h-0.5v-5.8l-5.3-8.5h0.5l5,8L-137.2,389.6z"/>
</g>
</svg>
