<?xml version="1.0" encoding="utf-8"?>
<!-- Generator: Adobe Illustrator 18.1.1, SVG Export Plug-In . SVG Version: 6.00 Build 0)  -->
<svg version="1.1" id="Layer_1" xmlns="http://www.w3.org/2000/svg" xmlns:xlink="http://www.w3.org/1999/xlink" x="0px" y="0px"
	 viewBox="0 0 207.5 216" enable-background="new 0 0 207.5 216" xml:space="preserve">
<g>
	<path fill="#A28448" d="M78.6,80.2c0.1-0.2,0.7,3.4,3.9,1.9c3.5-1.6,7.3-1.3,10,0c3.1,1.5,5.2,4.6,5.3,5.5s-7.9,3.3-7.9,3.3
		l-6.8-0.7C83.2,90.3,74.9,87.2,78.6,80.2z"/>
</g>
<g>
	<path fill="#A28448" d="M84,80.3c0,0-2.4-3.3,1.2-5.7c0,0-6.2,2.7-4,7.3"/>
</g>
<g>
	<path fill="#A28448" d="M134.9,96.4c-0.4-3.3-1.5-6.3-3.1-8.1c-0.1,2.6-1.3,4.8-3,6.5c1.8,4.9-1.1,9.7-1.1,9.7l4.7,6.7
		C134.3,106.6,135.6,103.4,134.9,96.4z"/>
</g>
<g>
	<path fill="#A28448" d="M132.6,88c0,0,7.4,5.6,2.2,19.2C134.8,107.2,146,94.7,132.6,88z"/>
</g>
<g>
	<g>
		<path fill="#A28448" d="M119.9,97.4c-0.2-0.1-0.3-0.2-0.5-0.3C119.2,97,119.2,97.3,119.9,97.4z"/>
	</g>
	<g>
		<path fill="#A28448" d="M122.3,97.3c-0.2,0-0.4,0-0.6,0c-0.8,0.2-1.4,0.2-1.8,0.2c1.3,0.8,4.1,2.1,5,7.5c0,0.1,1.1-2,2-2.8
			c0.9-0.7-0.2,0.1,0.9-0.7c0.9-0.6,0.5-5.1-0.2-6.3C126.2,96.1,124.1,97.3,122.3,97.3z"/>
	</g>
</g>
<g>
	<path fill="#A28448" d="M117.5,79.6c0.1,0,0.3-0.1,0.4-0.1c1.2-0.6,2.6-0.9,4.1-0.9c1.9,0,4.1,0.8,5.6,1.8
		c-0.3-5.1-4.1-11.4-11.1-13c-7.3-1.7-11.5,2.7-11.5,2.7C117.7,69,117.5,79.6,117.5,79.6z"/>
</g>
<g>
	<path fill="#A28448" d="M128.5,80.7c1.2,1.1,2.2,2.5,2.7,4c1.1-4.3,3.3-11.6-9.6-16C121.2,68.5,129.5,72.1,128.5,80.7z"/>
</g>
<g>
	<path fill="#A28448" d="M87.9,79.8c0,0,3.3-2.4,6.9-1.4c1.6,0.5,2.9,1.8,2.9,1.8s0,3.2,1.7,5.9C99.3,86.1,95.8,80.6,87.9,79.8z"/>
</g>
<g>
	<path fill="#A28448" d="M86.3,79.8c0,0,6.9-5.2,11.2-1.1c0.2-1.7,1-4.4,2.2-5.1C89.1,70.7,86.3,79.8,86.3,79.8z"/>
</g>
<g>
	<path fill="#A28448" d="M108,67.4c0,0-1.9-1.4-5.5,0.3c-1.3,0.6-2.7,3.6-2.1,6l3.4-2.8C103.8,70.9,104.8,67.8,108,67.4z"/>
</g>
<g>
	<path d="M87.9,74.6c0.2-0.2,0.4-0.4,0.7-0.5c0.3-0.1,0.5-0.3,0.8-0.5c0.1,0,0.1-0.1,0.1-0.2c0-0.1-0.1,0-0.2,0
		c-0.5,0.2-1,0.5-1.3,0.9C87.8,74.4,87.8,74.5,87.9,74.6z"/>
</g>
<g>
	<path fill="#A28448" d="M85.3,79.8c0,0,0.8-4.6,7.2-7.3C92.4,72.5,84.5,71.7,85.3,79.8z"/>
</g>
<g>
	<path fill="#A28448" d="M94.5,72.1c1.4-0.2,4.1,0.4,4.1,0.4s1-8.4,10.1-5.9c0,0-2.5-2.3-6.7-1.1C97.1,67,94.1,72.2,94.5,72.1z"/>
</g>
<g>
	<circle fill="#FFFFFF" cx="107.5" cy="80.2" r="10.5"/>
</g>
<g>
	<g>
		<path fill="#A28448" d="M107.5,78.5c-0.4,0.4-0.4,1.2,0,1.6c0.6,0.6,1.4,0.6,2,0c0.7-0.7,0.7-1.8,0-2.5c-0.9-0.9-2.3-0.9-3.1,0
			c-1.1,1.1-1.1,2.8,0,3.9c1.3,1.3,3.5,1.3,4.9,0c1.7-1.7,1.7-4.4,0-6.1c-2.1-2.1-5.5-2.1-7.6,0c-2.6,2.6-2.6,6.9,0,9.5
			c3.3,3.3,8.9,3.1,12.2-0.5l0.4,3.5c-4.2,4.2-9.5,3.1-13.8-1.2c-3.4-3.4-3.4-8.9,0-12.3c1.6-1.6,4-2.7,6-2.4c1.5,0.2,2.8,0.9,4,1.9
			c4.9,4.3,2.9,6-0.2,8.3c-1.9,1.5-4.5,1.7-6.3,0c-1.4-1.4-1.6-3.8-0.3-5.2c1.9-1.9,3.4-1.5,4.3,0.1c0.6,1.1,0.9,2.3,0,3.2
			c-0.7,0.7-1.9,0.7-2.6,0C106.9,80.1,106.9,79.1,107.5,78.5L107.5,78.5z"/>
	</g>
	<g>
		<g>
			<path fill="#A28448" d="M107.5,78.5c-0.6,0.6-0.5,1.3,0,1.8c0.7,0.7,1.5,0.6,2.2-0.1c0.9-0.9,0.7-2.1-0.2-2.9
				c-1.1-1.1-2.3-1.2-3.4-0.1c-1.4,1.4-1.4,3.6,0,4.9c1.7,1.7,4.5,1.7,6.2,0c2.1-2.1,2.1-5.6,0-7.7c-2.7-2.7-7-2.7-9.6,0
				c-3.3,3.3-3.3,8.7,0,12c4.2,4.2,10.9,4.2,15,0l0.6,0.5l2.2,1.8c-5.3,5.3-14,5.3-19.3,0c-4.3-4.3-4.3-11.2,0-15.5
				c3.4-3.4,9-3.4,12.4,0c2.7,2.7,2.7,7.2,0,9.9c-2.2,2.2-5.7,2.2-7.9,0c-1.7-1.7-1.7-4.6,0-6.3c1.4-1.4,3.7-1.4,5.1,0
				c1.1,1.1,1.1,2.9,0,4.1c-0.9,0.9-2.3,0.9-3.2,0C106.7,80.3,106.7,79.3,107.5,78.5L107.5,78.5z"/>
		</g>
	</g>
</g>
<g>
	<g>
		<circle fill="#FFFFFF" cx="123.5" cy="88.1" r="9.5"/>
	</g>
	<g>
		<g>
			<path fill="#A28448" d="M124.2,88c-0.6-0.1-1.2,0.3-1.3,0.9c-0.2,0.8,0.3,1.5,1.1,1.6c0.9,0.2,1.9-0.4,2.1-1.4
				c0.2-1.2-0.5-2.3-1.7-2.6c-1.5-0.3-2.9,0.6-3.2,2.1c-0.4,1.8,0.8,3.6,2.6,4c2.3,0.5,4.6-1,5-3.3c0.6-2.9-1.3-5.7-4.1-6.3
				c-3.6-0.7-7.1,1.6-7.9,5.2c-0.9,4.5,2.3,9,7,9.7l-2.7,2.3c-5.8-1.2-7.7-6.2-6.5-12c1-4.6,5.5-7.6,10.1-6.6
				c2.2,0.4,4.4,1.8,5.3,3.7c0.6,1.3,0.8,2.8,0.5,4.3c-0.9,6.3-3.3,5.6-7,4.4c-2.3-0.8-3.9-2.8-3.4-5.2c0.4-1.9,2.2-3.4,4.1-3
				c2.6,0.5,3,2,2.2,3.6c-0.6,1.1-1.4,2-2.6,1.7c-1-0.2-1.6-1.1-1.4-2.1C122.6,88.3,123.4,87.8,124.2,88L124.2,88z"/>
		</g>
		<g>
			<g>
				<path fill="#A28448" d="M124.2,88c-0.8-0.2-1.3,0.3-1.5,1c-0.2,1,0.3,1.5,1.3,1.7c1.2,0.2,2.1-0.6,2.3-1.8
					c0.3-1.5-0.3-2.5-1.7-2.8c-1.9-0.4-3.7,0.8-4.1,2.7c-0.5,2.3,1,4.6,3.3,5.1c2.9,0.6,5.7-1.3,6.3-4.2c0.8-3.6-1.6-7.2-5.2-7.9
					c-4.5-0.9-9,2-9.9,6.5c-1.2,5.7,2.5,11.2,8.1,12.4l-0.1,0.8l-0.3,2.8c-7.3-1.5-12-8.6-10.4-15.9c1.2-5.8,6.9-9.6,12.7-8.4
					c4.7,1,7.6,5.5,6.7,10.2c-0.8,3.7-4.4,6.1-8.1,5.3c-3-0.6-4.9-3.5-4.3-6.5c0.5-2.4,2.8-3.9,5.2-3.4c1.9,0.4,3.1,2.3,2.7,4.2
					c-0.3,1.5-1.8,2.5-3.3,2.2c-1.2-0.3-2-1.4-1.8-2.7C122.4,88.3,123.2,87.8,124.2,88L124.2,88z"/>
			</g>
		</g>
	</g>
</g>
<g>
	<path fill="#A28448" d="M92.2,127.4c0,0,1.1,2.4,2.5,6.1c1.4,3.7,3,8.7,4.2,14.1c0.5,2.2-1.3,4.5-3,6.7c-0.1,0.2-0.7,0.7-0.7,0.7
		s8.8,2.1,10.9,2.9c0.2,0.1,1.1,0.5,1.1,0.5s0.9-0.4,1.2-0.5c0.7-0.2,5.9-2.3,8.5-2.5c-1-1-9.7-7.6,0.9-29.5c0,0-2-14.6-9.1-12.7
		S92.2,127.4,92.2,127.4z"/>
</g>
<g>
	<path d="M88.7,85.2c0.4,0.1,0.9,0.1,1.3,0.3c0.9,0.5,1.7,1,2.3,1.9c0.4,0.6,0.9,1.1,1.4,1.6c0.1,0.1,0.2,0.1,0.1,0.2
		c0,0.1-0.2,0-0.3,0.1c0,0-0.2,0.1-0.2,0c0-0.2-0.2-0.3-0.4-0.3c-0.8-0.2-1.7-0.4-2.5-0.7c-0.7-0.2-1.3-0.5-2-0.9
		c-0.6-0.3-0.8-0.8-0.8-1.4C87.6,85.6,88.2,85.2,88.7,85.2z M92,88.3c-0.2-0.2-0.4-0.3-0.6-0.5c-0.2-0.3-0.4-0.5-0.8-0.3
		c-0.1,0-0.2,0-0.2-0.1c0-0.1,0.1-0.1,0.2-0.1c0.1,0,0.2-0.1,0.1-0.2c-0.1-0.1-0.3-0.3-0.5-0.2c-0.5,0.2-1-0.1-1.4-0.2
		c0,0-0.1,0-0.1-0.1c0-0.1,0.1-0.1,0.1,0c0.2,0,0.4,0.1,0.6,0.1c0.2,0,0.4,0.1,0.6,0c-0.5-0.2-0.9-0.5-1.4-0.6
		c0.2-0.1,0.3-0.1,0.5,0c0.5,0.2,1.1,0.3,1.6,0.7c0.2,0.2,0.5,0.2,0.6,0.4c0.3,0.4,0.5,0.8,0.9,1c0.2,0.1,0.2,0.3,0.5,0.3
		c0.1,0,0.2,0.1,0.2,0c0-0.1,0-0.1-0.1-0.2c-0.2-0.2-0.5-0.4-0.6-0.7c-0.6-0.9-1.5-1.5-2.5-1.9c-0.3-0.1-0.7-0.2-1-0.2
		c-0.3,0-0.7,0.3-0.6,0.6c0.1,0.4,0.2,0.7,0.6,0.9c0.9,0.5,1.8,0.9,2.8,1.2C91.5,88.3,91.7,88.4,92,88.3z"/>
</g>
<g>
	<path fill="#A28448" d="M84.7,91.6c0,0-2.6,0.6-3,4.5c-0.4,3.5,0,3.3-0.6,5.3c-0.3,0.9-3.8,6.1-4.4,7.4s-0.6,1.2-1,1.9
		c-0.5,1.3,0.1,2.9,2.2,3.7c0,0,0.9,0.2,1.1,0.8c0.3,0.8-0.5,1.2-0.7,1.5c-0.1,0.3-0.7,1.5,0.8,2.5c0,0-0.3,0.6-0.4,1.5
		c0,0,0,1,0.9,1.6c0.5,0.3,0.3,0.6,0,1.8c-0.2,0.9-0.3,2.4,0.7,3.8c1.3,1.9,6.5,1.4,16.6-0.7c5.1-1.1,8.9-2.8,9.6-8.5
		c0.9-7.7,8.2-1.6,8.2-1.6l0.9-14.5L86.1,90.7c-0.1-0.1-1.7,0.3-1.7,0.5L84.7,91.6z"/>
	<path fill="#FFFFFF" d="M84.2,129.5L84.2,129.5c-2.2,0-3.6-0.4-4.2-1.4c-1.1-1.6-0.9-3.4-0.8-4.1c0-0.2,0.1-0.4,0.1-0.6
		c0.1-0.3,0.2-0.6,0.1-0.7l0,0c0,0,0,0-0.1-0.1c-1.1-0.7-1.1-1.9-1.1-2l0,0c0-0.6,0.2-1,0.3-1.3c-0.9-0.8-1.2-1.8-0.7-2.8
		c0.1-0.1,0.2-0.3,0.3-0.4c0.3-0.3,0.5-0.5,0.3-0.8c-0.2-0.5-0.8-0.6-0.8-0.6l-0.1,0c-1.2-0.5-2-1.2-2.4-2.1c-0.3-0.7-0.3-1.4,0-2.1
		c0.2-0.4,0.3-0.6,0.4-0.8c0.1-0.2,0.3-0.5,0.6-1.1c0.3-0.6,1.1-2,2.1-3.4c1-1.6,2.2-3.5,2.3-3.9C81,100.2,81,99.8,81,99
		c0-0.6,0-1.4,0.2-2.9c0.3-3.1,1.9-4.3,2.8-4.7l-0.1-0.2l0-0.2c0.1-0.3,0.3-0.4,1.1-0.6c0.1,0,0.8-0.2,1.1-0.2c0.1,0,0.1,0,0.2,0
		l29.7,12l-1,15.7l-0.7-0.6c0,0-2.6-2.2-4.8-2.2c-1.5,0-2.4,1.1-2.7,3.5c-0.7,5.8-4.5,7.7-9.9,8.9C90.8,128.9,86.8,129.5,84.2,129.5
		z M79.2,120.7c0,0.1,0,0.8,0.7,1.2c0.6,0.4,0.5,1,0.3,1.7c0,0.2-0.1,0.4-0.1,0.6c-0.1,0.6-0.3,2.1,0.6,3.4c0.5,0.7,1.6,1,3.5,1
		c2.5,0,6.4-0.6,12.6-1.9c5.2-1.1,8.6-2.8,9.2-8.1c0.4-3.5,2.2-4.3,3.5-4.3c1.8,0,3.7,1.2,4.7,1.9l0.9-13.4L86,91.1
		c-0.2,0-0.7,0.1-1,0.2l0.3,0.6l-0.6,0.1c-0.1,0-2.3,0.6-2.7,4.1c-0.2,1.4-0.2,2.2-0.2,2.8c0,0.9,0,1.3-0.4,2.5
		c-0.2,0.5-1,1.9-2.4,4.2c-0.9,1.4-1.7,2.7-2,3.3c-0.3,0.6-0.5,1-0.6,1.2c-0.1,0.2-0.2,0.4-0.3,0.7c-0.2,0.5-0.2,1,0,1.4
		c0.3,0.7,1,1.3,1.9,1.6c0.2,0,1.1,0.3,1.4,1.1c0.3,0.8-0.3,1.4-0.6,1.7c-0.1,0.1-0.1,0.1-0.1,0.2c-0.1,0.3-0.5,1.1,0.7,1.9l0.3,0.2
		l-0.2,0.4C79.6,119.4,79.3,119.9,79.2,120.7z"/>
</g>
<g>
	<path fill="#A28448" d="M115.5,94c-1-1.2-2-1.6-2.1-1.6c0,0.2-0.5,2.6,1.6,5.1c0.6,0.7,1.4,1.4,2.3,2
		C117.2,97.2,116.6,95.4,115.5,94z"/>
</g>
<g>
	<path fill="#A28448" d="M109.2,90.9c-1.1-1.1-2.2-1.3-2.3-1.4c0,0.2-0.2,2.6,2.2,4.9c0.7,0.6,1.5,1.2,2.5,1.7
		C111.3,93.9,110.5,92.1,109.2,90.9z"/>
</g>
<g>
	<g>
		<path fill="#A28448" d="M113,105.6c0,0-6.7,7.4-1.9,14.9c0,0,4.4,4.8,3.3,9.5c0,0-2.5,2.4-6.9,8.1c0,0-6,10.4,9.7,17.1
			c0,0-6.3-9.4,0.3-16.7c6.6-7.3,7.8-9.3,7.9-12.7c0.1-3.4-3.5-10.6-7-13.7C114.9,108.9,113.1,107.3,113,105.6z"/>
		<path fill="#FFFFFF" d="M118.6,156.3l-1.6-0.7c-5.8-2.4-9.4-5.7-10.7-9.6c-1.5-4.4,0.6-8.1,0.7-8.2l0-0.1c3.8-5.1,6.2-7.5,6.8-8.1
			c0.9-4.3-3.1-8.8-3.2-8.9l-0.1-0.1c-2.1-3.2-2.4-6.9-0.9-10.7c1.1-2.8,2.8-4.7,2.9-4.8l0.8-0.9l0.1,1.2c0.1,1.5,1.9,3.1,5.2,6.1
			c3.6,3.2,7.3,10.5,7.2,14.1c-0.1,3.6-1.3,5.5-8,13c-6.2,6.9-0.3,15.9-0.2,16L118.6,156.3z M107.9,138.3c-0.2,0.3-1.9,3.6-0.6,7.4
			c1.1,3.3,4,6.1,8.6,8.3c-0.5-1-1.2-2.5-1.6-4.4c-1-4.4-0.1-8.4,2.7-11.5c6.5-7.3,7.7-9.1,7.8-12.4c0.1-3.3-3.6-10.4-6.8-13.3
			c-2.9-2.5-4.6-4.2-5.3-5.7c-0.6,0.8-1.4,2.1-2,3.7c-1.3,3.5-1.1,6.8,0.8,9.7c0.2,0.2,1.2,1.4,2.1,3c1.3,2.4,1.7,4.8,1.3,6.9l0,0.2
			l-0.1,0.1C114.6,130.3,112.1,132.8,107.9,138.3z"/>
	</g>
	<g>
		<g>
			<path fill="#A28448" d="M114.1,106.2c0,0-2.1,3.2,3.1,8.5c2.6,2.7,4.2,3.5,7.5,5.3c9.5,5.3,4.1,12.2,5.8,13.9
				c1.9,1.9,3.5,6-1,10.4c-3,3-12.6,2.2-11.8,10.1c0,0.2,0,0.6,0,0.6s-7.5-8.2,1.6-14.3c6.5-4.4,9.8-13.9,4.9-17.4
				C119.3,119.9,110,111.3,114.1,106.2z"/>
		</g>
		<g>
			<path fill="#A28448" d="M121.8,117.5c0,0,2.2,3.2,6.9-0.4c0,0,11.7,11.5-5.1,14.2c-10.2,1.7-14,3.6-16.1,6.7
				c0,0-3.2-9.8,5.1-12.4C121.2,123,121,122.3,121.8,117.5z"/>
			<path fill="#FFFFFF" d="M107.3,138.8l-0.2-0.7c-0.1-0.2-1.6-5.1,0.4-8.9c1-1.9,2.6-3.2,4.9-3.9c8.1-2.5,8.2-3.1,9-7.4l0.2-1.4
				l0.5,0.7c0,0,0.8,1.1,2.5,1.1c1.2,0,2.5-0.5,3.9-1.6l0.2-0.2l0.2,0.2c0.2,0.2,5.2,5.2,3.8,9.5c-0.8,2.7-3.9,4.5-9.1,5.3
				c-10.7,1.8-14,3.8-15.9,6.6L107.3,138.8z M122,118.2c-0.8,4.4-1.2,5.2-9.4,7.8c-2.1,0.6-3.6,1.8-4.5,3.5
				c-1.5,2.8-0.9,6.3-0.5,7.7c2.1-2.6,5.7-4.6,15.9-6.3c4.9-0.8,7.8-2.4,8.6-4.9c1.1-3.5-2.5-7.6-3.4-8.6c-1.4,1-2.8,1.6-4.1,1.6
				C123.4,119.2,122.5,118.7,122,118.2z"/>
		</g>
		<g>
			<path fill="#A28448" d="M113.5,106c0,0-4.2,2.8-1,7c3.2,4.1,11.4,9.6,9.5,16.1c-1.9,6.5-10.6,6.9-10.7,14.8
				c-0.1,6.9,6,10.9,6,10.9s-0.6-7.8,6-11.3c8.3-4.4,9.9-10.8,9.2-17.9c-0.6-5.8-7-12.8-12.2-14.5C117,110,113.3,108.7,113.5,106z"
				/>
			<path fill="#FFFFFF" d="M117.7,155.4l-0.6-0.4c-0.1,0-6.2-4.2-6.1-11.2c0.1-4.5,2.9-6.7,5.6-8.8c2.2-1.7,4.3-3.3,5.1-6.1
				c1.4-4.7-2.7-8.8-6.3-12.4c-1.2-1.2-2.3-2.3-3.1-3.4c-1-1.3-1.4-2.7-1.2-4c0.4-2.1,2.3-3.4,2.3-3.5l0.6-0.4l-0.1,0.7
				c-0.2,2.5,3.5,3.7,6.5,4.7c5.1,1.7,11.8,8.7,12.5,14.8c0.9,8.5-2.1,14.3-9.4,18.2c-6.3,3.4-5.8,10.9-5.8,11L117.7,155.4z
				 M113.2,106.7c-0.5,0.5-1.3,1.4-1.5,2.6c-0.2,1.1,0.2,2.3,1.1,3.4c0.8,1,1.9,2.1,3.1,3.3c3.6,3.6,8,8,6.5,13.1
				c-0.9,3-3.1,4.7-5.3,6.4c-2.7,2.1-5.3,4.1-5.3,8.3c-0.1,5.4,3.8,9,5.3,10.2c0-2.1,0.7-8,6.2-10.9c3.8-2,6.4-4.6,7.8-7.8
				c1.2-2.7,1.6-5.9,1.2-9.7c-0.3-2.6-1.8-5.8-4.3-8.6c-2.3-2.7-5.2-4.8-7.7-5.6C117.2,110.4,113.6,109.2,113.2,106.7z"/>
		</g>
		<g>
			<g>
				<path fill="#FFFFFF" d="M112,105.6c-2,5,3.7,8.4,6.8,11.1c3.8,3.3,7.1,7.6,7.2,12.9c0,2.5-0.9,5-2.4,7c-1.4,1.8-3.3,3.3-5.1,4.7
					c-1.8,1.4-3.8,2.8-4.7,4.9c-1,2.2-0.2,4.7,1,6.7c1.2,2,3,3.6,5.1,4.6c1,0.5,1.9-1,0.9-1.5c-2.1-1-3.7-2.6-4.8-4.7
					c-0.6-1.1-1-2.4-0.7-3.6c0.2-1.2,1.1-2.2,2-3c3.4-3.2,7.7-5.4,9.6-9.9c2-4.7,0.9-9.8-1.9-13.9c-1.4-2.1-3.1-3.8-5-5.5
					c-1.9-1.6-4.1-3-5.5-5c-0.8-1.2-1.1-2.7-0.6-4.2C114.1,105.1,112.4,104.6,112,105.6L112,105.6z"/>
			</g>
		</g>
		<g>
			<path fill="#A28448" d="M130.7,118.4c0,0,3.2,3.5,2.6,9.1C133.3,127.5,139.9,119.9,130.7,118.4z"/>
		</g>
	</g>
</g>
<g>
	<g>
		<path fill="#FFFFFF" d="M135.4,117.1c0.5-5.7-0.5-10.5-3-14.4c-2.2-3.4-4.8-4.8-5-4.9c-0.1,0.2-0.3,1.1-0.5,2.5
			c-0.6-1.1-1.2-2.1-2-3.1c-2.4-3-5-4.1-5.2-4.2c0,0.2-0.3,1.3-0.2,2.9c-0.6-1.1-1.3-2-2.2-2.9c-2.5-2.7-5-3.5-5.2-3.6
			c0,0.2-0.2,1.3,0,2.9c-0.7-0.7-1.4-1.4-2.1-1.9c-2.7-2-5-2.4-5.2-2.4c0,0.2,0,1,0.4,2.2c-0.8-0.9-1.8-1.6-2.8-2.2
			c-2.4-1.4-4.3-1.4-4.5-1.4c0,0.1,0.1,0.5,0.3,1.1c-0.7-0.5-1.5-0.9-2.3-1.3c-2.6-1.1-4.6-0.9-4.7-0.8c0,0.1,0.1,0.2,0.2,0.5
			c-0.8-0.4-1.6-0.7-2.4-1c-2.7-0.8-4.6-0.3-4.8-0.3c0,0.1,0.1,0.3,0.3,0.6c-0.5-0.2-1-0.4-1.6-0.6c-2.3-0.7-4-0.3-4.1-0.3
			c0.1,0.3,1.6,3.8,6.6,5.2c1,0.3,2.2,0.5,3.4,0.5l0.2,0.4c-2.3-0.3-4.4-0.2-6.3,0.6c-2.3,0.9-3.4,2.2-3.5,2.3
			c0.2,0.1,2.3,1.3,5.5,0.9c0.5,0.3,2.4,1.1,5.1,0.9c-0.2,0.2-0.4,0.3-0.4,0.4c0.2,0.2,2.8,2,6.9,1.5c-0.4,0.3-0.6,0.5-0.7,0.6
			c0.2,0.2,2.4,1.7,6,1.6c-0.3,0.2-0.4,0.3-0.5,0.3c0.2,0.2,2.8,2.5,7.5,2.1l0.3,0.2c-0.9,0.3-1.4,0.6-1.4,0.6
			c0.2,0.2,2.1,2.5,6,3.3c-0.3,0.1-0.6,0.2-0.6,0.2c0.2,0.3,2.1,3.5,6.7,4.9c-1.1,0.1-1.7,0.3-1.8,0.3c0.2,0.4,2.6,5.2,9.8,6.7
			c1.7,0.4,3.5,0.5,5.4,0.4c0,0,0,0,0,0c0.2,0,0.4,0,0.5,0c0.2,0,0.5,0,0.7,0c0,0,0-0.1-0.1-0.1c0.5-0.2,0.8-0.4,1-0.7c0,0,0,0,0,0
			c0,0,0.1,0.1,0.1,0.1C135.3,117.5,135.3,117.3,135.4,117.1C135.4,117.2,135.4,117.1,135.4,117.1L135.4,117.1z"/>
	</g>
	<g>
		<path fill="#A28448" d="M88.9,86c-1.5-0.4-2.6-0.2-2.6-0.2c0.1,0.2,1,2.4,4.2,3.3c0.9,0.3,1.9,0.4,3,0.4
			C92.1,87.7,90.6,86.5,88.9,86z"/>
	</g>
	<g>
		<g>
			<path fill="#A28448" d="M84,89.8c0,0.3-0.2,0.5-0.5,0.5c-0.3,0-0.5,0-0.5-0.2c0-0.3,0.2-0.7,0.5-0.7C83.7,89.3,84,89.5,84,89.8z"
				/>
		</g>
		<g>
			<g>
				<path fill="#A28448" d="M83.4,89.6c0,0,32.2,1.5,49,26l-0.5,1c0,0-13.7-22.5-48.5-26.6L83.4,89.6z"/>
				<path fill="#A28448" d="M131.9,116.9c-0.1,0-0.2,0-0.2-0.1c0,0-0.9-1.4-2.7-3.6c-1.7-2-4.5-5-8.5-8.1c-4.5-3.5-9.5-6.5-15-8.9
					c-6.8-3-14.3-4.9-22.2-5.9c-0.1,0-0.2-0.1-0.2-0.3l0-0.4c0-0.1,0-0.1,0.1-0.2c0.1,0,0.1-0.1,0.2-0.1c0.1,0,8.2,0.4,18.3,3.8
					c5.9,2,11.3,4.6,16.1,7.8c6,4,11,8.9,14.8,14.5c0.1,0.1,0.1,0.2,0,0.3l-0.5,1C132.1,116.8,132,116.9,131.9,116.9
					C131.9,116.9,131.9,116.9,131.9,116.9z M86.5,90.2c6.8,1.1,13.3,2.9,19.3,5.5c5.5,2.4,10.6,5.4,15.1,9c4,3.2,6.9,6.2,8.5,8.2
					c1.3,1.5,2.1,2.7,2.5,3.2l0.2-0.5c-3.8-5.5-8.7-10.3-14.6-14.2c-4.7-3.2-10.1-5.8-16-7.8C95.2,91.5,89.7,90.6,86.5,90.2z"/>
			</g>
			<g>
				<path fill="#A28448" d="M132.9,116.3c0,0.5-0.3,0.8-0.7,0.8c-0.4,0-0.7-0.4-0.7-0.8s0.3-0.8,0.7-0.8c0.1,0,0.2-0.1,0.1-0.2
					c-0.1-0.2,0.2,0.2,0.3,0.2C132.8,115.7,132.9,116.1,132.9,116.3z"/>
			</g>
		</g>
	</g>
	<g>
		<path fill="#A28448" d="M131.9,104.1c-1.6-2.5-3.5-3.5-3.6-3.6c-0.1,0.4-1.5,4.8,1.9,10.1c1,1.5,2.3,2.9,3.9,4.3
			C134.5,110.7,133.7,107,131.9,104.1z"/>
	</g>
	<g>
		<path fill="#A28448" d="M124.2,97.9c-1.6-2-3.3-2.7-3.4-2.8c-0.1,0.3-0.9,4.3,2.5,8.6c1,1.2,2.2,2.3,3.7,3.4
			C127.1,103.4,126.1,100.3,124.2,97.9z"/>
	</g>
	<g>
		<path fill="#A28448" d="M116.5,93.5c-1.6-1.7-3.1-2.2-3.2-2.2c0,0.3-0.5,3.9,2.8,7.4c0.9,1,2.1,1.9,3.5,2.7
			C119.4,98.2,118.4,95.5,116.5,93.5z"/>
	</g>
	<g>
		<path fill="#A28448" d="M109.3,91.1c-1.5-1.2-2.9-1.4-3-1.4c0,0.2,0.1,3.3,3.5,5.8c0.9,0.7,2.1,1.3,3.4,1.8
			C112.4,94.5,111.1,92.4,109.3,91.1z"/>
	</g>
	<g>
		<path fill="#A28448" d="M102.2,88.6c-1.4-0.8-2.7-0.9-2.7-0.9c0,0.2,0.5,2.8,3.6,4.6c0.9,0.5,1.9,0.9,3.1,1.2
			C105.2,91.2,103.9,89.5,102.2,88.6z"/>
	</g>
	<g>
		<path fill="#A28448" d="M95.3,86.9c-1.5-0.6-2.7-0.5-2.8-0.5c0.1,0.2,0.8,2.7,4.1,4.1c0.9,0.4,2,0.6,3.2,0.8
			C98.6,89.1,97.1,87.6,95.3,86.9z"/>
	</g>
	<g>
		<path fill="#A28448" d="M82.7,85.4c-1.5-0.4-2.6-0.2-2.6-0.2c0.1,0.2,1,2.4,4.2,3.3c0.9,0.3,1.9,0.4,3,0.4
			C86,87.1,84.5,85.9,82.7,85.4z"/>
	</g>
	<g>
		<path fill="#A28448" d="M123.9,112.2c-2.1-0.5-3.6,0-3.7,0c0.1,0.2,1.7,3.3,6.2,4.3c1.3,0.3,2.7,0.4,4.2,0.2
			C128.7,114.3,126.4,112.7,123.9,112.2z"/>
	</g>
	<g>
		<path fill="#A28448" d="M118.3,106.5c-1.9-0.2-3.1,0.3-3.2,0.3c0.1,0.2,1.7,2.7,5.7,3.2c1.1,0.1,2.4,0.1,3.7-0.1
			C122.5,107.9,120.5,106.7,118.3,106.5z"/>
	</g>
	<g>
		<path fill="#A28448" d="M112.2,102.2c-1.7,0-2.8,0.6-2.9,0.7c0.1,0.2,1.9,2.3,5.7,2.2c1,0,2.2-0.2,3.4-0.6
			C116.3,102.9,114.2,102.2,112.2,102.2z"/>
	</g>
	<g>
		<path fill="#A28448" d="M105.8,98.6c-1.6,0.3-2.5,1-2.5,1c0.1,0.1,2.1,1.8,5.4,1.2c0.9-0.2,1.9-0.5,3-1
			C109.6,98.7,107.6,98.3,105.8,98.6z"/>
	</g>
	<g>
		<path fill="#A28448" d="M99.9,96.3c-1.6,0.4-2.4,1.2-2.5,1.3c0.2,0.1,2.3,1.6,5.7,0.7c1-0.3,1.9-0.7,2.9-1.3
			C103.8,96,101.8,95.8,99.9,96.3z"/>
	</g>
	<g>
		<path fill="#A28448" d="M94,93.9c-1.6,0.4-2.4,1.2-2.5,1.3c0.2,0.1,2.3,1.6,5.7,0.7c1-0.3,1.9-0.7,2.9-1.3
			C97.9,93.7,95.8,93.4,94,93.9z"/>
	</g>
	<g>
		<path fill="#A28448" d="M87.7,92.7c-1.3,0.5-1.9,1.3-2,1.3c0.2,0.1,2.1,1.2,4.8,0.1c0.8-0.3,1.6-0.8,2.4-1.4
			C91,92.1,89.2,92.1,87.7,92.7z"/>
	</g>
	<g>
		<path fill="#A28448" d="M81.7,91.6c-1.3,0.5-2,1.3-2,1.3c0.2,0.1,2.1,1.2,4.9,0.1c0.8-0.3,1.6-0.8,2.4-1.4
			C85,91,83.2,91,81.7,91.6z"/>
	</g>
</g>
<g>
	<circle fill="#A28448" cx="109.7" cy="117.8" r="3.3"/>
	<path fill="#FFFFFF" d="M109.7,121.7c-2.1,0-3.8-1.7-3.8-3.8c0-2.1,1.7-3.8,3.8-3.8c2.1,0,3.8,1.7,3.8,3.8
		C113.5,119.9,111.8,121.7,109.7,121.7z M109.7,115c-1.5,0-2.8,1.2-2.8,2.8c0,1.5,1.2,2.8,2.8,2.8c1.5,0,2.8-1.2,2.8-2.8
		C112.5,116.3,111.2,115,109.7,115z"/>
</g>
<g>
	<path fill="#A28448" d="M154.2,138.9c11.9-0.7,14.2-9.4,14.2-9.5C167.9,129.4,159.8,128.2,154.2,138.9z"/>
	<path fill="#A28448" d="M160.9,113.9c0,0.7,0,1.5,0.1,2.3c5.9-4.7,7.2-9.8,7.2-13.2c0-1.8-0.3-2.9-0.4-3
		C167.4,100.2,160.9,103.5,160.9,113.9z"/>
	<path fill="#A28448" d="M159,129.5c8.4-4.6,9.3-11.1,9.3-13.7c0-0.6-0.1-1-0.1-1.1C167.7,114.9,159.9,117.4,159,129.5z"/>
	<path fill="#A28448" d="M160.2,103.2c4.7-4.8,5.7-9.4,5.7-12.4c0-2.7-0.7-4.4-0.8-4.6c-0.4,0.2-5.4,3.7-5.4,12
		C159.6,99.8,159.8,101.5,160.2,103.2z"/>
	<path fill="#A28448" d="M130.2,159.9c11.2,6.9,18.8,2,19.3,1.7C148.9,161,142.1,155.1,130.2,159.9z"/>
	<path fill="#A28448" d="M120.6,163.6c8.9,8.4,16.3,4.1,16.4,4C136.8,167.3,131.9,160.2,120.6,163.6z"/>
	<path fill="#A28448" d="M147.5,147.9c11.9,1.2,15.5-6.9,15.5-7v0C162.4,140.7,154.6,138.3,147.5,147.9z"/>
	<path fill="#A28448" d="M139.8,155.4c11.5,3.7,16.3-3.3,16.5-3.7c0,0,0,0,0,0C155.9,151.5,148.7,147.3,139.8,155.4z"/>
	<path fill="#A28448" d="M155.1,74.8c0-5-2.3-8-2.5-8.4c-0.3,0.3-2.6,3.4-2.6,8.5c0,3.1,0.9,6.3,2.5,9.7
		C154.2,81.2,155.1,77.9,155.1,74.8z"/>
	<path fill="#A28448" d="M138.8,70.7c-0.3-12.1-7.9-15.1-8.5-15.3c0,0.1-0.1,0.6-0.1,1.6C130.1,60.1,131.3,66,138.8,70.7z"/>
	<path fill="#A28448" d="M161.5,80.2c0-3.4-1.1-5.5-1.2-5.7c-0.3,0.3-4.4,3.6-4.4,10.8c0,2,0.4,4.2,1,6.5
		C159.9,88.1,161.5,84.2,161.5,80.2z"/>
	<path fill="#A28448" d="M147.1,72.2c0-8.2-4.9-11.7-5.3-11.9c-0.1,0.2-0.9,1.9-0.9,4.7c0,3,1,7.5,5.6,12.3
		C146.8,75.5,147.1,73.8,147.1,72.2z"/>
	<path fill="#A28448" d="M45.8,129.4c0.2,0.6,2.7,8.8,14.2,9.5C54.4,128,46.1,129.4,45.8,129.4z"/>
	<path fill="#A28448" d="M53.3,116.2c0.1-0.8,0.1-1.6,0.1-2.3c0-10.4-6.5-13.7-6.9-13.9c0,0.1-0.4,1.3-0.4,3
		C46.1,106.5,47.4,111.5,53.3,116.2z"/>
	<path fill="#A28448" d="M55.3,129.5c-0.9-12.1-8.7-14.6-9.3-14.8c0,0-0.1,0.4-0.1,1.1C46,118.4,46.9,124.9,55.3,129.5z"/>
	<path fill="#A28448" d="M54.7,98.3c0-8.4-5-11.8-5.4-12c-0.1,0.2-0.8,1.9-0.8,4.6c0,3,1,7.6,5.7,12.4
		C54.5,101.5,54.7,99.8,54.7,98.3z"/>
	<path fill="#A28448" d="M64.8,161.6c0.8,0.5,8.3,5.1,19.3-1.7C71.7,154.9,65.2,161.2,64.8,161.6z"/>
	<path fill="#A28448" d="M77.3,167.6L77.3,167.6c0.4,0.2,7.7,4.2,16.4-4C82.2,160.2,77.5,167.3,77.3,167.6z"/>
	<path fill="#A28448" d="M66.8,147.9c-7.3-9.8-15.3-7.1-15.5-7C51.5,141.4,55.2,149.1,66.8,147.9z"/>
	<path fill="#A28448" d="M74.5,155.4c-9-8.2-16.4-3.7-16.5-3.7C58.3,152.1,63.3,159,74.5,155.4z"/>
	<path fill="#A28448" d="M64.4,74.9c0-5.1-2.4-8.2-2.6-8.5c-0.3,0.4-2.5,3.4-2.5,8.4c0,3.1,0.9,6.4,2.6,9.8
		C63.5,81.2,64.4,78,64.4,74.9z"/>
	<path fill="#A28448" d="M84.2,57c0-1-0.1-1.6-0.1-1.6c-0.6,0.2-8.2,3.1-8.5,15.3C83,66,84.2,60.1,84.2,57z"/>
	<path fill="#A28448" d="M58.5,85.3c0-7.2-4.1-10.4-4.5-10.7c-0.1,0.2-1.2,2.3-1.2,5.7c0,4,1.6,7.9,4.7,11.7
		C58.2,89.6,58.5,87.3,58.5,85.3z"/>
	<path fill="#A28448" d="M73.4,65c0-2.7-0.8-4.5-0.9-4.7c-0.4,0.2-5.3,3.7-5.3,11.9c0,1.6,0.2,3.3,0.6,5.1
		C72.4,72.5,73.4,68,73.4,65z"/>
	<path fill="#A28448" d="M122.9,160.4c0,0,0.1,0,0.1,0c-3.2,0.8-6.4,1.5-9.7,2c-1.2,0.2-2.4,0.4-3.6,0.8c-0.7,0.2-1.5,0.4-2.2,0.7
		c-0.4,0.1-0.3,0.2-0.6,0c-2.2-0.8-4.6-1.4-6.9-1.7c-4.2-0.4-8.4-1.7-12.3-3.2c-5.2-2.1-10.1-5-14.4-8.6
		c-8.6-7.2-14.7-17.3-16.9-28.4c-1.9-10.1-0.5-20.8,4-30c2.8-5.7,6.7-10.9,11.4-15.1c2.4-2.2,5-4.1,7.8-5.8c1.4-0.8,2.8-1.6,4.2-2.3
		c0.7-0.4,1.6-0.6,2.3-1.1c0.6-0.4,1.2-0.9,1.8-1.3c-10.6,4.1-19.8,11.6-25.7,21.2c-5.7,9.3-8.1,20.3-6.9,31.1
		c2.5,22.5,20.9,40.3,42.9,44.1c2.6,0.4,5.1,1,7.5,2c-2.1,1-4,2.3-5.5,4.1c-0.8,0.9-1.4,1.9-2,3c-0.3,0.6-0.5,1.2-0.7,1.8
		c-0.1,0.3-0.2,0.6-0.3,1c0.3,0.2,0.7,0.5,1,0.7c0.3-5,4.6-8.2,8.8-10c4.2,1.9,8.5,5.1,8.8,10c0.3-0.2,0.6-0.4,0.9-0.6
		c0.3-0.2-0.3-1.6-0.4-2c-0.5-1.2-1.1-2.4-2-3.4c-1.6-2-3.6-3.5-5.9-4.5"/>
	<path fill="#A28448" d="M108.5,164.6c4.6-1.7,9.4-2.1,14.1-3.5c5.3-1.6,10.4-4.1,14.9-7.3c9-6.3,16-15.4,19.3-25.8
		c3.3-10.3,3.1-21.7-0.6-31.8c-3.9-10.5-11.4-19.5-21-25.5c-1.8-1.1-3.7-2.2-5.7-3.1c0.2,0.3,0.4,0.6,0.6,0.9
		c0.3,0.1,0.6,0.3,0.8,0.4c0.6,0.3,1.1,0.6,1.6,0.9c1.2,0.6,2.3,1.3,3.4,2.1c2.1,1.4,4.1,2.9,6,4.6c3.7,3.3,6.9,7.1,9.5,11.3
		c5.2,8.5,7.8,18.6,7.1,28.6c-0.7,10.2-4.8,20-11.4,27.8c-3.4,4.1-7.5,7.6-12,10.4c-2.5,1.8-5,2.8-7.6,4.1c0,0-7.1,2.5-8.1,2.5"/>
</g>
<g>
	<g>
		<path id="SVGID_x5F_1_x5F_" fill="none" d="M189.9,115.1c0,45.8-37.1,82.9-82.9,82.9S24,160.9,24,115.1s37.1-82.9,82.9-82.9
			S189.9,69.3,189.9,115.1z"/>
		<text>		<textPath  xlink:href="#SVGID_x5F_1_x5F_" startOffset="2033.6589%">
<tspan  fill="#A28448" font-family="'PFRegalDisplayPro-Bold'" font-size="18.0089" letter-spacing="400">clavis aurea</tspan>		</textPath>
</text>
	</g>
	<path id="SVGID_x5F_2_x5F_" fill="none" d="M17.8,111.1c0,49.2,39.9,89.1,89.1,89.1s89.1-39.9,89.1-89.1s-39.9-89.1-89.1-89.1
		S17.8,61.8,17.8,111.1z"/>
	<text>	<textPath  xlink:href="#SVGID_x5F_2_x5F_" startOffset="99.9837%">
<tspan  fill="#A28448" font-family="'Baskerville'" font-size="10.976">magna concipe, incipe nunc, mundum mente refinge</tspan>	</textPath>
</text>
	<g id="_x31__38_">
		<g>
			<path fill="#A28448" d="M19.3,115c0,0,0-2.7-0.1-3.3c0.5,0,1.6,0,2.1,0c0,0.4,0,0.8,0,1.3c0,0,0,0,0,0c0,1.4,0.1,2.8,0.3,4.2
				c0,0,0,0,0,0s0,0.1,0,0.2c-0.6,0.1-4.6,0.7-5.2,0.8c0,0,0-0.1,0-0.1c-0.1-1-0.2-2-0.3-2.9C16.8,115,19.3,115,19.3,115z"/>
			<path fill="#A28448" d="M16.3,108c0,0,0-0.1,0-0.1c0.6,0.1,4.6,0.5,5.2,0.6c0,0.1,0,0.2,0,0.2s0,0,0,0c-0.1,0.7-0.1,1.5-0.1,2.2
				c-0.6,0-3,0.1-3,0.1s0,2.7,0.1,3.3c-0.5,0-1.9,0-2.4,0c0-0.4,0-0.8,0-1.3C16.1,111.3,16.1,109.7,16.3,108z"/>
		</g>
		<g>
			<path fill="#A28448" d="M194.3,114.9c0,0,0.2-2.7,0.3-3.3c-0.5,0-1.6-0.1-2.1-0.2c0,0.4,0,0.8-0.1,1.2c0,0,0,0,0,0
				c-0.1,1.4-0.3,2.8-0.6,4.2c0,0,0,0,0,0s0,0.1,0,0.2c0.6,0.1,4.5,1,5.1,1.1c0,0,0-0.1,0-0.1c0.2-1,0.3-1.9,0.5-2.9
				C196.8,115.1,194.3,114.9,194.3,114.9z"/>
			<path fill="#A28448" d="M197.8,108.2c0,0,0-0.1,0-0.1c-0.6,0-4.6,0.2-5.3,0.3c0,0.1,0,0.2,0,0.2s0,0,0,0c0,0.7,0,1.5,0,2.2
				c0.6,0,2.9,0.2,2.9,0.2s-0.2,2.7-0.3,3.3c0.5,0,1.9,0.2,2.4,0.2c0-0.4,0.1-0.8,0.1-1.3C197.8,111.5,197.8,109.9,197.8,108.2z"/>
		</g>
	</g>
</g>
</svg>
