<?xml version="1.0" encoding="utf-8"?>
<!-- Generator: Adobe Illustrator 19.0.0, SVG Export Plug-In . SVG Version: 6.00 Build 0)  -->
<svg version="1.1" id="Layer_1" xmlns="http://www.w3.org/2000/svg" xmlns:xlink="http://www.w3.org/1999/xlink" x="0px" y="0px"
	 viewBox="-81 173.3 448.9 446.7" style="enable-background:new -81 173.3 448.9 446.7;" xml:space="preserve">
<style type="text/css">
	.st0{fill:#CE2028;}
	.st1{fill:#FBD118;}
	.st2{fill:#009461;}
	.st3{fill:#FFFFFF;}
	.st4{fill:none;stroke:#FFFFFF;stroke-miterlimit:10;}
	.st5{fill:none;}
	.st6{enable-background:new    ;}
</style>
<g>
	<g>
		<rect x="5.7" y="492.3" class="st0" width="92.7" height="8.5"/>
		<rect x="98.4" y="492.3" class="st1" width="92.7" height="8.5"/>
		<rect x="191.1" y="492.3" class="st2" width="92.7" height="8.5"/>
	</g>
	<g>
		<path class="st3" d="M116.8,460.1c-6.7,2.2-14.9,3.3-24.5,3.3c-8.5,0-16.2-1.4-22.9-4.3c-6.7-2.8-12.5-7-17.2-12.3
			c-4.6-5.2-8.3-11.7-10.8-19.1c-2.5-7.3-3.9-15.6-4.1-24.5c0-3.9,0-7.6-0.1-11.1s-0.1-7.2-0.1-10.9v-48.5c0-3.1,0-6.3,0.1-9.6
			s0.2-7,0.4-11.3c0.2-4.2,1.1-7.9,2.9-10.7c1.7-2.8,3.8-5.1,6.3-6.7c0.7-0.5,1.4-0.9,2.2-1.3H5c2.8,1.4,5.3,3.4,7.4,5.9
			c1.3,1.5,2.2,3.5,2.8,6c0.5,2.2,0.9,4.6,1.2,7.3c0.3,2.6,0.4,5.5,0.4,8.5V362c0,9,0,17.1-0.1,24.4s-0.1,13.2-0.1,17.8
			c0,1.9,0.1,4.8,0.4,8.7c0.2,3.7,1,8,2.3,12.5s3.3,9.2,6.1,13.9c2.6,4.6,6.4,8.9,11.3,12.8s11.2,7,18.8,9.3
			c7.7,2.3,17.4,3.5,28.7,3.5c11.5,0,21.3-1.2,29.1-3.6c1.7-0.5,3.3-1.1,4.8-1.7C117.5,459.9,117.1,460,116.8,460.1z"/>
		<path class="st3" d="M166.5,294.7c0.8-0.5,1.6-1,2.4-1.4h-32.5c1.9,0.8,3.5,1.8,5,2.8c4.5,3.2,7.7,7.4,9.5,12.6
			c0.7,1.8,1.3,4.1,1.6,7.1c0.3,2.8,0.6,5.7,0.7,8.9c0.2,3,0.3,6.2,0.4,9.5c0-0.3,0-0.7,0-1c0.2-3.8,0.4-7.5,0.7-11s0.7-6.5,1.1-9.2
			c0.4-2.9,1-5,1.6-6.4C159.4,301.3,162.5,297.3,166.5,294.7z"/>
	</g>
	<g>
		<path class="st3" d="M268.1,303.8c-1.1,0-1.8-0.4-4.6-2.4c-1.5-1.1-3.9-2.3-7-3.7c-3.1-1.4-7.3-2.7-12.3-3.8l0,0
			c0.1,0.1,0.3,0.1,0.4,0.2c5.5,2.7,10.4,6.4,14.7,10.7c4.2,4.3,8,9.3,11.2,14.7c1.6,2.8,3.1,5.6,4.5,8.5v-30.2
			c-0.5,0.6-0.9,1.2-1.4,1.9C271.5,302.4,270,303.8,268.1,303.8z"/>
		<path class="st3" d="M279.4,438.7c2.9-5.7,4.4-12.3,4.4-19.6c0-10.8-2.8-19.8-8.5-27s-13.9-12.8-24.3-16.7c-3.1-1.1-6-2.2-8.8-3.1
			c-2.8-1-5.6-1.9-8.3-2.8c-2.8-0.9-5.6-1.8-8.4-2.8c-2.9-1-6-2.2-9.3-3.5c-8.6-3.2-15.7-7.6-21.2-13.1c-5.8-5.8-8.7-13.5-8.7-22.9
			c0-5.9,1-11.3,3.1-16c2-4.7,4.9-8.7,8.6-11.9c1.7-1.5,3.5-2.8,5.5-3.9c-6.1,1.9-11.6,4.8-16.3,8.5c-5,3.9-9.1,8.9-12.1,14.8
			c-3,5.9-4.5,13-4.5,21.3c0,4.8,0.8,9.4,2.5,13.6c1.7,4.3,3.9,8.3,6.6,11.9s6,6.7,9.6,9.4c3.7,2.7,7.5,4.8,11.5,6.3
			c3.7,1.4,6.9,2.6,9.5,3.5c2.7,0.9,5.3,1.8,7.9,2.7c2.5,0.9,5.2,1.8,8.1,2.8c3,1,6.4,2.2,10.3,3.7c4,1.5,7.8,3.2,11.3,5
			c3.7,1.9,6.9,4.3,9.6,7c2.8,2.8,5,6.1,6.6,9.9c1.6,3.8,2.4,8.2,2.4,13.2c0,12.1-4.1,21.9-12.3,29c-2.2,2-4.6,3.6-7.2,5.1
			c0.3-0.1,0.7-0.2,1-0.3c7.4-2,13.8-5.1,19-9.2C272.3,449.5,276.5,444.5,279.4,438.7z"/>
		<path class="st3" d="M171.2,459.4c2.2-2.7,3.7-4,5.5-4c1.2,0,2.5,0.5,5.1,2.2c1.7,1,4.3,2.2,7.9,3.5c3.5,1.3,8.1,2.4,13.6,3.4
			c0.2,0,0.4,0.1,0.6,0.1c-2.5-0.9-4.6-1.9-6.4-2.8c-3-1.6-6.1-3.9-9.3-6.8c-3.1-2.9-6.1-6.3-8.9-10.1c-2.8-3.8-5.3-7.8-7.7-12
			c-0.7-1.3-1.4-2.7-2.1-4.1L170,461C170.4,460.4,170.8,459.9,171.2,459.4z"/>
	</g>
	<rect x="-73" y="179.7" class="st4" width="434.7" height="434.7"/>
	<rect x="-72.3" y="544.1" class="st5" width="434.7" height="53"/>
	<g class="st6">
		<path class="st3" d="M94.9,572.1c-1.8,0.4-3.5,0.5-5.1,0.5c-6.1,0-10.3-3.4-10.3-9.3c0-6.2,4.6-9.4,9.6-9.4c1.7,0,3.6,0.4,4.5,0.9
			v-10.7h1.4V572.1z M93.6,556.1c-1.1-0.6-2.7-1-4.5-1c-4.6,0-8.2,2.9-8.2,8.2c0,5.2,3.6,8.1,8.9,8.1c1.5,0,2.6-0.1,3.8-0.3V556.1z"
			/>
		<path class="st3" d="M101.3,562.9v0.3c0,5.1,3.2,8.2,7.5,8.2c2.4,0,4.1-0.5,6-2.1v1.5c-1.6,1.3-3.9,1.9-6,1.9
			c-4.9,0-8.9-3.4-8.9-9.5c0-5,3.6-9.3,8.4-9.3c4.4,0,7.2,3.1,7.2,7.9v1.1H101.3z M114.2,561.8c0-4.1-2.2-6.7-5.8-6.7
			c-3.5,0-6.4,2.8-7,6.7H114.2z"/>
		<path class="st3" d="M119.4,569.2c1.5,1.4,3.2,2.2,5.1,2.2c2.7,0,4.3-1.2,4.3-3.6c0-2.4-1.7-3.3-4.5-4.3c-3.1-1.1-4.8-2.4-4.8-5
			c0-2.8,2.2-4.6,5.1-4.6c1.9,0,3.4,0.6,4.6,1.5v1.6c-1.2-1.1-2.8-1.8-4.6-1.8c-2.4,0-3.8,1.3-3.8,3.4c0,2.1,1.3,2.9,4.1,3.9
			c2.9,1.1,5.2,2,5.2,5.4c0,3.3-2.7,4.9-5.6,4.9c-2.1,0-4.1-0.8-5.1-1.8V569.2z"/>
		<path class="st3" d="M134.9,549c0-0.7,0.5-1.1,1.1-1.1s1.1,0.5,1.1,1.1s-0.5,1.1-1.1,1.1S134.9,549.6,134.9,549z M136.7,572.3
			h-1.4v-18.1h1.4V572.3z"/>
		<path class="st3" d="M156,571.7c-0.9,0.5-2.7,0.9-4.3,0.9c-5.7,0-9.8-3.1-9.8-9.4c0-5.8,4.2-9.3,10.3-9.3c1.7,0,3.9,0.4,5.1,1
			v17.6c0,5.3-3.7,7.5-7.8,7.5c-2.2,0-4.2-0.5-5.3-1.1v-1.4c1.5,0.9,3.2,1.3,5.3,1.3c3.4,0,6.5-1.6,6.5-6.5V571.7z M156,555.7
			c-1.2-0.4-2.4-0.6-3.8-0.6c-5.6,0-8.9,3.3-8.9,8.1c0,5,3,8.2,8.4,8.2c1.6,0,2.9-0.2,4.3-0.8V555.7z"/>
		<path class="st3" d="M163.9,555.1c2.3-0.8,4.7-1.2,6.9-1.2c4.6,0,7.2,1.8,7.2,6v12.4h-1.4v-12.1c0-4.1-2.7-5-5.8-5
			c-2.2,0-4.1,0.4-5.5,0.7v16.4h-1.4V555.1z"/>
		<path class="st3" d="M184.3,562.9v0.3c0,5.1,3.2,8.2,7.5,8.2c2.4,0,4.1-0.5,6-2.1v1.5c-1.6,1.3-3.9,1.9-6,1.9
			c-4.9,0-8.9-3.4-8.9-9.5c0-5,3.6-9.3,8.4-9.3c4.4,0,7.2,3.1,7.2,7.9v1.1H184.3z M197.2,561.8c0-4.1-2.2-6.7-5.8-6.7
			c-3.5,0-6.4,2.8-7,6.7H197.2z"/>
		<path class="st3" d="M205.1,572.3h-1.4v-16.4c1.8-1.2,3.9-1.9,6.1-1.9c1,0,1.7,0.1,2.6,0.3v1.4c-0.9-0.2-1.7-0.4-2.6-0.4
			c-1.9,0-3.7,0.5-4.8,1.2V572.3z"/>
	</g>
</g>
</svg>
